<?xml version="1.0" encoding="utf-8"?>
<svg version="1.1" xmlns:xlink="http://www.w3.org/1999/xlink" width="50px" height="50px" xmlns="http://www.w3.org/2000/svg">
  <defs>
    <filter x="177px" y="778px" width="50px" height="50px" filterUnits="userSpaceOnUse" id="filter23">
      <feOffset dx="1" dy="1" in="SourceAlpha" result="shadowOffsetInner" />
      <feGaussianBlur stdDeviation="2.5" in="shadowOffsetInner" result="shadowGaussian" />
      <feComposite in2="shadowGaussian" operator="atop" in="SourceAlpha" result="shadowComposite" />
      <feColorMatrix type="matrix" values="0 0 0 0 0  0 0 0 0 0  0 0 0 0 0  0 0 0 0.6980392156862745 0  " in="shadowComposite" />
    </filter>
    <g id="widget24">
      <path d="M 201 782  C 212.2 782  221 790.8  221 802  C 221 813.2  212.2 822  201 822  C 189.8 822  181 813.2  181 802  C 181 790.8  189.8 782  201 782  Z " fill-rule="nonzero" fill="#00c2ff" stroke="none" />
      <path d="M 201 782.5  C 211.92000000000002 782.5  220.5 791.08  220.5 802  C 220.5 812.92  211.92000000000002 821.5  201 821.5  C 190.07999999999998 821.5  181.5 812.92  181.5 802  C 181.5 791.08  190.07999999999998 782.5  201 782.5  Z " stroke-width="1" stroke="#ffffff" fill="none" />
    </g>
  </defs>
  <g transform="matrix(1 0 0 1 -177 -778 )">
    <use xlink:href="#widget24" filter="url(#filter23)" />
    <use xlink:href="#widget24" />
  </g>
</svg>