<?xml version="1.0" encoding="utf-8"?>
<svg version="1.1" xmlns:xlink="http://www.w3.org/1999/xlink" width="50px" height="50px" xmlns="http://www.w3.org/2000/svg">
  <defs>
    <filter x="177px" y="1118px" width="50px" height="50px" filterUnits="userSpaceOnUse" id="filter27">
      <feOffset dx="1" dy="1" in="SourceAlpha" result="shadowOffsetInner" />
      <feGaussianBlur stdDeviation="2.5" in="shadowOffsetInner" result="shadowGaussian" />
      <feComposite in2="shadowGaussian" operator="atop" in="SourceAlpha" result="shadowComposite" />
      <feColorMatrix type="matrix" values="0 0 0 0 0  0 0 0 0 0  0 0 0 0 0  0 0 0 0.6980392156862745 0  " in="shadowComposite" />
    </filter>
    <g id="widget28">
      <path d="M 201 1122  C 212.2 1122  221 1130.8  221 1142  C 221 1153.2  212.2 1162  201 1162  C 189.8 1162  181 1153.2  181 1142  C 181 1130.8  189.8 1122  201 1122  Z " fill-rule="nonzero" fill="#d9001b" stroke="none" />
      <path d="M 201 1122.5  C 211.92000000000002 1122.5  220.5 1131.08  220.5 1142  C 220.5 1152.92  211.92000000000002 1161.5  201 1161.5  C 190.07999999999998 1161.5  181.5 1152.92  181.5 1142  C 181.5 1131.08  190.07999999999998 1122.5  201 1122.5  Z " stroke-width="1" stroke="#ffffff" fill="none" />
    </g>
  </defs>
  <g transform="matrix(1 0 0 1 -177 -1118 )">
    <use xlink:href="#widget28" filter="url(#filter27)" />
    <use xlink:href="#widget28" />
  </g>
</svg>